<mxfile host="app.diagrams.net" agent="Mozilla/5.0 (Windows NT 10.0; Win64; x64) AppleWebKit/537.36 (KHTML, like Gecko) Chrome/138.0.0.0 Safari/537.36" version="28.0.7">
  <diagram name="Page-1" id="b_SU7HQ5ytHzumC4b1QJ">
    <mxGraphModel dx="554" dy="335" grid="1" gridSize="10" guides="1" tooltips="1" connect="1" arrows="1" fold="1" page="1" pageScale="1" pageWidth="1169" pageHeight="827" math="0" shadow="0">
      <root>
        <mxCell id="0" />
        <mxCell id="1" parent="0" />
        <mxCell id="X2RAUeLbSHqUilS6K8jO-2" value="" style="rounded=1;whiteSpace=wrap;html=1;fontSize=13;fontFamily=Times New Roman;fontStyle=1;absoluteArcSize=1;container=0;" vertex="1" parent="1">
          <mxGeometry x="610" y="205" width="120" height="60" as="geometry" />
        </mxCell>
        <mxCell id="X2RAUeLbSHqUilS6K8jO-3" value="" style="verticalLabelPosition=bottom;verticalAlign=top;html=1;shape=mxgraph.basic.rect;fillColor2=none;strokeWidth=1;size=20;indent=5;strokeColor=default;align=center;fontFamily=Times New Roman;fontSize=12;fontColor=default;fillColor=#dae8fc;container=0;" vertex="1" parent="1">
          <mxGeometry x="670" y="245" width="30" height="10" as="geometry" />
        </mxCell>
        <mxCell id="X2RAUeLbSHqUilS6K8jO-4" value="" style="verticalLabelPosition=bottom;verticalAlign=top;html=1;shape=mxgraph.basic.rect;fillColor2=none;strokeWidth=1;size=20;indent=5;strokeColor=default;fillColor=#dae8fc;fontFamily=Times New Roman;container=0;" vertex="1" parent="1">
          <mxGeometry x="640" y="235" width="30" height="10" as="geometry" />
        </mxCell>
        <mxCell id="X2RAUeLbSHqUilS6K8jO-5" value="" style="verticalLabelPosition=bottom;verticalAlign=top;html=1;shape=mxgraph.basic.rect;fillColor2=none;strokeWidth=1;size=20;indent=5;fillColor=#f8cecc;strokeColor=default;right=1;bottom=1;topLeftStyle=rounded;topRightStyle=rounded;container=0;fontFamily=Times New Roman;" vertex="1" parent="1">
          <mxGeometry x="610" y="205" width="120" height="20" as="geometry" />
        </mxCell>
        <mxCell id="X2RAUeLbSHqUilS6K8jO-6" value="Master" style="text;html=1;align=center;verticalAlign=middle;whiteSpace=wrap;rounded=0;fontFamily=Times New Roman;container=0;fontSize=11;" vertex="1" parent="1">
          <mxGeometry x="640" y="200" width="60" height="30" as="geometry" />
        </mxCell>
        <mxCell id="X2RAUeLbSHqUilS6K8jO-7" value="" style="verticalLabelPosition=bottom;verticalAlign=top;html=1;shape=mxgraph.basic.rect;fillColor2=none;strokeWidth=1;size=20;indent=5;fillColor=#dae8fc;strokeColor=default;align=center;fontFamily=Times New Roman;fontSize=12;fontColor=default;container=0;" vertex="1" parent="1">
          <mxGeometry x="610" y="225" width="30" height="10" as="geometry" />
        </mxCell>
        <mxCell id="X2RAUeLbSHqUilS6K8jO-8" value="" style="verticalLabelPosition=bottom;verticalAlign=top;html=1;shape=mxgraph.basic.rect;fillColor2=none;strokeWidth=1;size=10;indent=0;bottomRightStyle=rounded;absoluteCornerSize=1;strokeColor=default;align=center;fontFamily=Times New Roman;fontSize=12;fontColor=default;fillColor=#dae8fc;container=0;right=1;bottom=1;" vertex="1" parent="1">
          <mxGeometry x="699" y="225" width="31" height="40" as="geometry" />
        </mxCell>
        <mxCell id="X2RAUeLbSHqUilS6K8jO-9" value="" style="verticalLabelPosition=bottom;verticalAlign=top;html=1;shape=mxgraph.basic.rect;fillColor2=none;strokeWidth=1;size=20;indent=5;left=1;strokeColor=#FFFFFF;" vertex="1" parent="1">
          <mxGeometry x="698" y="226" width="31" height="18" as="geometry" />
        </mxCell>
        <mxCell id="X2RAUeLbSHqUilS6K8jO-10" value="" style="verticalLabelPosition=bottom;verticalAlign=top;html=1;shape=mxgraph.basic.rect;fillColor2=none;strokeWidth=1;size=20;indent=5;top=1;strokeColor=#FFFFFF;" vertex="1" parent="1">
          <mxGeometry x="700" y="241" width="29" height="13" as="geometry" />
        </mxCell>
        <mxCell id="X2RAUeLbSHqUilS6K8jO-11" value="" style="verticalLabelPosition=bottom;verticalAlign=top;html=1;shape=mxgraph.basic.rect;fillColor2=none;strokeWidth=1;size=20;indent=5;top=0;strokeColor=#000000;right=0;left=0;fillColor=none;" vertex="1" parent="1">
          <mxGeometry x="699" y="242" width="31" height="13" as="geometry" />
        </mxCell>
      </root>
    </mxGraphModel>
  </diagram>
</mxfile>
